<svg id="visual" viewBox="0 0 900 600" width="900" height="600" xmlns="http://www.w3.org/2000/svg" xmlns:xlink="http://www.w3.org/1999/xlink" version="1.1"><path d="M0 103L13.7 99C27.3 95 54.7 87 82 76C109.3 65 136.7 51 163.8 47C191 43 218 49 245.2 58C272.3 67 299.7 79 327 76C354.3 73 381.7 55 409 50C436.3 45 463.7 53 491 63C518.3 73 545.7 85 573 91C600.3 97 627.7 97 654.8 92C682 87 709 77 736.2 78C763.3 79 790.7 91 818 97C845.3 103 872.7 103 886.3 103L900 103L900 0L886.3 0C872.7 0 845.3 0 818 0C790.7 0 763.3 0 736.2 0C709 0 682 0 654.8 0C627.7 0 600.3 0 573 0C545.7 0 518.3 0 491 0C463.7 0 436.3 0 409 0C381.7 0 354.3 0 327 0C299.7 0 272.3 0 245.2 0C218 0 191 0 163.8 0C136.7 0 109.3 0 82 0C54.7 0 27.3 0 13.7 0L0 0Z" fill="#4d4d4d"></path><path d="M0 157L13.7 163C27.3 169 54.7 181 82 183C109.3 185 136.7 177 163.8 164C191 151 218 133 245.2 139C272.3 145 299.7 175 327 178C354.3 181 381.7 157 409 150C436.3 143 463.7 153 491 165C518.3 177 545.7 191 573 190C600.3 189 627.7 173 654.8 168C682 163 709 169 736.2 168C763.3 167 790.7 159 818 166C845.3 173 872.7 195 886.3 206L900 217L900 101L886.3 101C872.7 101 845.3 101 818 95C790.7 89 763.3 77 736.2 76C709 75 682 85 654.8 90C627.7 95 600.3 95 573 89C545.7 83 518.3 71 491 61C463.7 51 436.3 43 409 48C381.7 53 354.3 71 327 74C299.7 77 272.3 65 245.2 56C218 47 191 41 163.8 45C136.7 49 109.3 63 82 74C54.7 85 27.3 93 13.7 97L0 101Z" fill="#3b3b3b"></path><path d="M0 361L13.7 371C27.3 381 54.7 401 82 386C109.3 371 136.7 321 163.8 312C191 303 218 335 245.2 346C272.3 357 299.7 347 327 339C354.3 331 381.7 325 409 317C436.3 309 463.7 299 491 302C518.3 305 545.7 321 573 311C600.3 301 627.7 265 654.8 277C682 289 709 349 736.2 351C763.3 353 790.7 297 818 282C845.3 267 872.7 293 886.3 306L900 319L900 215L886.3 204C872.7 193 845.3 171 818 164C790.7 157 763.3 165 736.2 166C709 167 682 161 654.8 166C627.7 171 600.3 187 573 188C545.7 189 518.3 175 491 163C463.7 151 436.3 141 409 148C381.7 155 354.3 179 327 176C299.7 173 272.3 143 245.2 137C218 131 191 149 163.8 162C136.7 175 109.3 183 82 181C54.7 179 27.3 167 13.7 161L0 155Z" fill="#2a2a2a"></path><path d="M0 475L13.7 486C27.3 497 54.7 519 82 531C109.3 543 136.7 545 163.8 534C191 523 218 499 245.2 495C272.3 491 299.7 507 327 516C354.3 525 381.7 527 409 523C436.3 519 463.7 509 491 500C518.3 491 545.7 483 573 474C600.3 465 627.7 455 654.8 464C682 473 709 501 736.2 507C763.3 513 790.7 497 818 501C845.3 505 872.7 529 886.3 541L900 553L900 317L886.3 304C872.7 291 845.3 265 818 280C790.7 295 763.3 351 736.2 349C709 347 682 287 654.8 275C627.7 263 600.3 299 573 309C545.7 319 518.3 303 491 300C463.7 297 436.3 307 409 315C381.7 323 354.3 329 327 337C299.7 345 272.3 355 245.2 344C218 333 191 301 163.8 310C136.7 319 109.3 369 82 384C54.7 399 27.3 379 13.7 369L0 359Z" fill="#252525"></path><path d="M0 601L13.7 601C27.3 601 54.7 601 82 601C109.3 601 136.7 601 163.8 601C191 601 218 601 245.2 601C272.3 601 299.7 601 327 601C354.3 601 381.7 601 409 601C436.3 601 463.7 601 491 601C518.3 601 545.7 601 573 601C600.3 601 627.7 601 654.8 601C682 601 709 601 736.2 601C763.3 601 790.7 601 818 601C845.3 601 872.7 601 886.3 601L900 601L900 551L886.3 539C872.7 527 845.3 503 818 499C790.7 495 763.3 511 736.2 505C709 499 682 471 654.8 462C627.7 453 600.3 463 573 472C545.7 481 518.3 489 491 498C463.7 507 436.3 517 409 521C381.7 525 354.3 523 327 514C299.7 505 272.3 489 245.2 493C218 497 191 521 163.8 532C136.7 543 109.3 541 82 529C54.7 517 27.3 495 13.7 484L0 473Z" fill="#202020"></path></svg>