<svg id="visual" viewBox="0 0 3840 2160" width="3840" height="2160" xmlns="http://www.w3.org/2000/svg" xmlns:xlink="http://www.w3.org/1999/xlink" version="1.1"><path d="M0 66L349 44L698 44L1047 131L1396 66L1745 131L2095 87L2444 44L2793 109L3142 131L3491 131L3840 87L3840 0L3491 0L3142 0L2793 0L2444 0L2095 0L1745 0L1396 0L1047 0L698 0L349 0L0 0Z" fill="#222222"></path><path d="M0 152L349 174L698 131L1047 260L1396 195L1745 260L2095 152L2444 87L2793 174L3142 260L3491 217L3840 131L3840 85L3491 129L3142 129L2793 107L2444 42L2095 85L1745 129L1396 64L1047 129L698 42L349 42L0 64Z" fill="#202020"></path><path d="M0 260L349 541L698 519L1047 498L1396 519L1745 498L2095 455L2444 260L2793 368L3142 692L3491 498L3840 260L3840 129L3491 215L3142 258L2793 172L2444 85L2095 150L1745 258L1396 193L1047 258L698 129L349 172L0 150Z" fill="#1e1e1e"></path><path d="M0 347L349 649L698 584L1047 606L1396 627L1745 584L2095 563L2444 303L2793 476L3142 757L3491 563L3840 325L3840 258L3491 496L3142 690L2793 366L2444 258L2095 453L1745 496L1396 517L1047 496L698 517L349 539L0 258Z" fill="#1c1c1c"></path><path d="M0 433L349 735L698 779L1047 735L1396 779L1745 757L2095 649L2444 498L2793 606L3142 865L3491 757L3840 455L3840 323L3491 561L3142 755L2793 474L2444 301L2095 561L1745 582L1396 625L1047 604L698 582L349 647L0 345Z" fill="#1b1b1b"></path><path d="M0 627L349 1016L698 908L1047 887L1396 887L1745 865L2095 735L2444 627L2793 735L3142 1081L3491 1016L3840 757L3840 453L3491 755L3142 863L2793 604L2444 496L2095 647L1745 755L1396 777L1047 733L698 777L349 733L0 431Z" fill="#191919"></path><path d="M0 779L349 1124L698 1016L1047 973L1396 1038L1745 973L2095 800L2444 735L2793 822L3142 1124L3491 1167L3840 843L3840 755L3491 1014L3142 1079L2793 733L2444 625L2095 733L1745 863L1396 885L1047 885L698 906L349 1014L0 625Z" fill="#171717"></path><path d="M0 1405L349 1319L698 1491L1047 1340L1396 1319L1745 1448L2095 1297L2444 1470L2793 1146L3142 1643L3491 1491L3840 1556L3840 841L3491 1165L3142 1122L2793 820L2444 733L2095 798L1745 971L1396 1036L1047 971L698 1014L349 1122L0 777Z" fill="#151515"></path><path d="M0 1535L349 1405L698 1621L1047 1513L1396 1405L1745 1578L2095 1383L2444 1535L2793 1211L3142 1707L3491 1578L3840 1643L3840 1554L3491 1489L3142 1641L2793 1144L2444 1468L2095 1295L1745 1446L1396 1317L1047 1338L698 1489L349 1317L0 1403Z" fill="#131313"></path><path d="M0 1772L349 1513L698 1707L1047 1707L1396 1513L1745 1643L2095 1621L2444 1621L2793 1362L3142 1837L3491 1772L3840 1772L3840 1641L3491 1576L3142 1705L2793 1209L2444 1533L2095 1381L1745 1576L1396 1403L1047 1511L698 1619L349 1403L0 1533Z" fill="#111111"></path><path d="M0 1902L349 1599L698 1837L1047 1815L1396 1621L1745 1772L2095 1772L2444 1772L2793 1470L3142 1880L3491 1815L3840 1837L3840 1770L3491 1770L3142 1835L2793 1360L2444 1619L2095 1619L1745 1641L1396 1511L1047 1705L698 1705L349 1511L0 1770Z" fill="#0f0f0f"></path><path d="M0 2161L349 2161L698 2161L1047 2161L1396 2161L1745 2161L2095 2161L2444 2161L2793 2161L3142 2161L3491 2161L3840 2161L3840 1835L3491 1813L3142 1878L2793 1468L2444 1770L2095 1770L1745 1770L1396 1619L1047 1813L698 1835L349 1597L0 1900Z" fill="#0c0c0c"></path></svg>